# xmcd
#
# Track frame offsets:
#	150
#	14308
#	30734
#	51210
#	63896
#	81361
#	98595
#	120317
#	139220
#	150813
#	167710
#
# Disc length: 2456 seconds
#
# Revision: 0
# Processed by: cddbd v1.5.1PL0 Copyright (c) Steve Scherf et al.
# Submitted via: dBpowerAMP V4.0
#
DISCID=7c09960b
DTITLE=Billy Currington - Doin' Somethin' Right
DYEAR=1900
DGENRE=
TTITLE0=I Wanna Be A Hillbilly
TTITLE1=Good Directions
TTITLE2=Must Be Doin' Somethin' Right
TTITLE3=Why, Why, Why
TTITLE4=That Changes Everything
TTITLE5=Little Bit Lonely
TTITLE6=She's Got A Way With Me
TTITLE7=Lucille
TTITLE8=Whole Lot More
TTITLE9=Here I Am
TTITLE10=She Knows What To Do With A Saturday Night
EXTD=
EXTT0=
EXTT1=
EXTT2=
EXTT3=
EXTT4=
EXTT5=
EXTT6=
EXTT7=
EXTT8=
EXTT9=
EXTT10=
PLAYORDER=
